#N canvas 582 168 948 696 10;
#X obj 66 155 r onOff;
#X obj 66 337 s sendCounter;
#X obj 58 66 s onOff;
#X obj 58 26 tgl 15 0 empty empty empty 17 7 0 10 -262144 -1 -1 0 1
;
#X obj 66 187 metro 1000;
#X obj 143 25 r sendCounter;
#X floatatom 143 49 5 0 0 0 - - -, f 5;
#X floatatom 160 307 5 0 0 0 - - -, f 5;
#X obj 66 232 f;
#X obj 160 178 - 1;
#X obj 160 220 < 1;
#X obj 256 278 f;
#X obj 160 199 trigger float float;
#X obj 160 241 sel 1;
#X obj 160 262 bng 15 250 50 0 empty empty empty 17 7 0 10 -262144
-1 -1;
#X obj 187 262 bng 15 250 50 0 empty empty empty 17 7 0 10 -262144
-1 -1;
#X msg 160 281 10;
#X obj 75 311 bng 15 250 50 0 empty empty empty 17 7 0 10 -262144 -1
-1;
#X obj 256 381 osc~;
#X obj 256 337 random 400;
#X obj 256 359 + 22;
#X obj 256 408 *~;
#X obj 337 367 vline~ 1 20 0 \, 0 100 50;
#X floatatom 153 376 5 0 0 0 - - -, f 5;
#X floatatom 236 46 5 0 0 0 - - -, f 5;
#X obj 153 397 s sendFrequency;
#X obj 236 22 r sendFrequency;
#X obj 75 265 sel 10;
#X obj 256 433 *~ 0.7;
#X obj 256 466 dac~;
#X connect 0 0 4 0;
#X connect 3 0 2 0;
#X connect 4 0 8 0;
#X connect 5 0 6 0;
#X connect 7 0 8 1;
#X connect 8 0 9 0;
#X connect 8 0 1 0;
#X connect 8 0 27 0;
#X connect 9 0 12 0;
#X connect 10 0 13 0;
#X connect 11 0 7 0;
#X connect 12 0 10 0;
#X connect 12 1 11 1;
#X connect 13 0 14 0;
#X connect 13 1 15 0;
#X connect 14 0 16 0;
#X connect 15 0 11 0;
#X connect 16 0 7 0;
#X connect 17 0 19 0;
#X connect 18 0 21 0;
#X connect 19 0 20 0;
#X connect 19 0 22 0;
#X connect 20 0 18 0;
#X connect 20 0 23 0;
#X connect 21 0 28 0;
#X connect 22 0 21 0;
#X connect 23 0 25 0;
#X connect 26 0 24 0;
#X connect 27 0 17 0;
#X connect 28 0 29 0;
#X connect 28 0 29 1;
